<?xml version="1.0" encoding="UTF-8"?>
<svg width="159px" height="159px" viewBox="0 0 159 159" version="1.1" xmlns="http://www.w3.org/2000/svg" xmlns:xlink="http://www.w3.org/1999/xlink">
    <!-- Generator: Sketch 53.2 (72643) - https://sketchapp.com -->
    <title>Page 1</title>
    <desc>Created with Sketch.</desc>
    <g id="Empty-screen-first-screen" stroke="none" stroke-width="1" fill="none" fill-rule="evenodd">
        <g id="Creat-new-spaces-Copy-4" transform="translate(-1147.000000, -344.000000)">
            <g id="Page-1" transform="translate(1147.000000, 344.000000)">
                <path d="M7.453125,152.789062 L152.789062,152.789062 L152.789062,38.5078125 L7.453125,38.5078125 L7.453125,152.789062 Z M7.453125,32.296875 L152.789062,32.296875 L152.789062,7.453125 L7.453125,7.453125 L7.453125,32.296875 Z M0,159 L159,159 L159,0 L0,0 L0,159 Z M40.9921875,22.359375 L40.9921875,14.90625 L140.367187,14.90625 L140.367187,22.359375 L40.9921875,22.359375 Z M14.90625,22.359375 L14.90625,14.90625 L22.359375,14.90625 L22.359375,22.359375 L14.90625,22.359375 Z M28.5703125,22.359375 L28.5703125,14.90625 L34.78125,14.90625 L34.78125,22.359375 L28.5703125,22.359375 Z" id="Fill-20" fill="#303E51"></path>
                <path d="M109.391304,72.2643098 C108.22725,71.1060647 107.48947,69.4932722 107.436771,67.7054668 C107.275162,67.6933131 107.117066,67.6811594 106.950773,67.6811594 L102.587327,67.6811594 C98.9546358,67.6811594 96,70.7463159 96,74.5176009 L96,80.0572453 L96.014053,80.1447518 L96.3829433,80.2650731 C99.1619171,81.164445 101.644608,81.581316 103.801738,81.7101449 L103.801738,80.0377994 C103.801738,76.3661746 106.160294,73.2584803 109.391304,72.2643098 M104.928117,67.0434783 C105.924598,67.0434783 106.854879,66.7508721 107.64347,66.2550672 C107.89201,64.6248328 108.766544,63.1977971 110.015049,62.22941 C110.018533,62.1330358 110.028986,62.0378227 110.028986,61.9402873 C110.028986,59.1233723 107.744512,56.8405797 104.928117,56.8405797 C102.110561,56.8405797 99.826087,59.1233723 99.826087,61.9402873 C99.826087,64.7606857 102.110561,67.0434783 104.928117,67.0434783 M133.475268,61.942029 L129.181521,61.942029 C129.137435,63.7374773 128.404215,65.353502 127.246377,66.5136937 C130.442614,67.5090098 132.781493,70.6089161 132.781493,74.268915 L132.781493,75.9710145 C137.018392,75.8097757 139.462847,74.5550229 139.621788,74.4701604 L139.961715,74.2907368 L140,74.2907368 L140,68.761338 C140,65.003141 137.07176,61.942029 133.475268,61.942029 M125.971014,56.1245041 C127.579124,57.1337606 128.708519,58.8386957 128.913019,60.8212054 C129.568347,61.127815 130.296876,61.3043478 131.069559,61.3043478 C133.888399,61.3043478 136.173913,59.0198741 136.173913,56.2023179 C136.173913,53.3847616 133.888399,51.1014493 131.069559,51.1014493 C128.277444,51.1014493 126.011682,53.3441126 125.971014,56.1245041 M124.547165,67.6811594 L120.254969,67.6811594 C120.209727,69.4753954 119.477734,71.0914201 118.318841,72.2528242 C121.515947,73.2469279 123.854614,76.3444095 123.854614,80.0068331 L123.854614,81.7101449 C128.091127,81.5464815 130.535359,80.292941 130.694286,80.2080785 L131.036502,80.0262302 L131.072464,80.0262302 L131.072464,74.4980438 C131.072464,70.7386345 128.14681,67.6811594 124.547165,67.6811594 M116.078611,72.7826087 L111.632726,72.7826087 C107.936765,72.7826087 104.927536,75.8380198 104.927536,79.5919144 L104.927536,85.1119915 L104.941843,85.1979401 L105.317401,85.3165733 C108.844064,86.4351153 111.91052,86.8115942 114.433312,86.8115942 C119.362056,86.8115942 122.219869,85.3831532 122.397513,85.2923624 L122.746841,85.1119915 L122.782609,85.1119915 L122.782609,79.5919144 C122.782609,75.8380198 119.775765,72.7826087 116.078611,72.7826087 M113.856814,72.1449275 C116.673729,72.1449275 118.956522,69.8607138 118.956522,67.0434783 C118.956522,64.2262427 116.673729,61.942029 113.856814,61.942029 C111.039899,61.942029 108.753623,64.2262427 108.753623,67.0434783 C108.753623,69.8607138 111.039899,72.1449275 113.856814,72.1449275 M117.681159,61.8648135 C119.288107,62.8738403 120.418664,64.5795485 120.623164,66.5604458 C121.278492,66.8646634 122.007021,67.0434783 122.779704,67.0434783 C125.598544,67.0434783 127.884058,64.7572023 127.884058,61.9402873 C127.884058,59.1233723 125.598544,56.8405797 122.779704,56.8405797 C119.987588,56.8405797 117.720665,59.0827326 117.681159,61.8648135 M116.535498,61.6809376 C116.589329,60.4157424 117.009444,59.2420512 117.681159,58.2733289 C117.208384,58.1708444 116.721566,58.115942 116.219535,58.115942 L111.485929,58.115942 C110.986239,58.115942 110.49942,58.1708444 110.028986,58.2708888 C110.74751,59.307934 111.173476,60.5731293 111.181668,61.942029 C112.052324,61.4418072 113.049365,61.1575348 114.110769,61.1575348 C114.973233,61.1575348 115.791228,61.346643 116.535498,61.6809376 M108.115942,51.7391304 C108.115942,48.5698497 110.686187,46 113.856877,46 C117.025161,46 119.594203,48.5698497 119.594203,51.7391304 C119.594203,54.9084111 117.025161,57.4782609 113.856877,57.4782609 C110.686187,57.4782609 108.115942,54.9084111 108.115942,51.7391304" id="Fill-9" fill="#303E51"></path>
                <path d="M33.3913043,72.2643098 C32.2272504,71.1060647 31.4894698,69.4932722 31.4367712,67.7054668 C31.2751621,67.6933131 31.1170662,67.6811594 30.9507728,67.6811594 L26.5873272,67.6811594 C22.9546358,67.6811594 20,70.7463159 20,74.5176009 L20,80.0572453 L20.014053,80.1447518 L20.3829433,80.2650731 C23.1619171,81.164445 25.6446075,81.581316 27.8017376,81.7101449 L27.8017376,80.0377994 C27.8017376,76.3661746 30.1602935,73.2584803 33.3913043,72.2643098 M28.9281169,67.0434783 C29.9245981,67.0434783 30.8548794,66.7508721 31.64347,66.2550672 C31.8920096,64.6248328 32.7665438,63.1977971 34.0150487,62.22941 C34.0185329,62.1330358 34.0289855,62.0378227 34.0289855,61.9402873 C34.0289855,59.1233723 31.7445118,56.8405797 28.9281169,56.8405797 C26.1105607,56.8405797 23.826087,59.1233723 23.826087,61.9402873 C23.826087,64.7606857 26.1105607,67.0434783 28.9281169,67.0434783 M57.4752682,61.942029 L53.1815213,61.942029 C53.1374353,63.7374773 52.4042151,65.353502 51.2463768,66.5136937 C54.4426137,67.5090098 56.7814934,70.6089161 56.7814934,74.268915 L56.7814934,75.9710145 C61.0183925,75.8097757 63.4628466,74.5550229 63.6217883,74.4701604 L63.9617148,74.2907368 L64,74.2907368 L64,68.761338 C64,65.003141 61.0717598,61.942029 57.4752682,61.942029 M49.9710145,56.1245041 C51.5791242,57.1337606 52.7085192,58.8386957 52.9130187,60.8212054 C53.5683467,61.127815 54.2968762,61.3043478 55.0695589,61.3043478 C57.8883987,61.3043478 60.173913,59.0198741 60.173913,56.2023179 C60.173913,53.3847616 57.8883987,51.1014493 55.0695589,51.1014493 C52.2774436,51.1014493 50.011682,53.3441126 49.9710145,56.1245041 M48.5471654,67.6811594 L44.2549691,67.6811594 C44.209727,69.4753954 43.4777336,71.0914201 42.3188406,72.2528242 C45.5159468,73.2469279 47.8546137,76.3444095 47.8546137,80.0068331 L47.8546137,81.7101449 C52.0911274,81.5464815 54.5353592,80.292941 54.6942865,80.2080785 L55.0365021,80.0262302 L55.0724638,80.0262302 L55.0724638,74.4980438 C55.0724638,70.7386345 52.14681,67.6811594 48.5471654,67.6811594 M40.0786108,72.7826087 L35.6327264,72.7826087 C31.9367645,72.7826087 28.9275362,75.8380198 28.9275362,79.5919144 L28.9275362,85.1119915 L28.9418432,85.1979401 L29.3174006,85.3165733 C32.8440635,86.4351153 35.9105196,86.8115942 38.4333117,86.8115942 C43.3620556,86.8115942 46.2198687,85.3831532 46.3975133,85.2923624 L46.7468413,85.1119915 L46.7826087,85.1119915 L46.7826087,79.5919144 C46.7826087,75.8380198 43.7757649,72.7826087 40.0786108,72.7826087 M37.8568142,72.1449275 C40.6737291,72.1449275 42.9565217,69.8607138 42.9565217,67.0434783 C42.9565217,64.2262427 40.6737291,61.942029 37.8568142,61.942029 C35.0398992,61.942029 32.7536232,64.2262427 32.7536232,67.0434783 C32.7536232,69.8607138 35.0398992,72.1449275 37.8568142,72.1449275 M41.6811594,61.8648135 C43.2881072,62.8738403 44.4186641,64.5795485 44.6231636,66.5604458 C45.2784916,66.8646634 46.0070211,67.0434783 46.7797039,67.0434783 C49.5985436,67.0434783 51.884058,64.7572023 51.884058,61.9402873 C51.884058,59.1233723 49.5985436,56.8405797 46.7797039,56.8405797 C43.9875885,56.8405797 41.720665,59.0827326 41.6811594,61.8648135 M40.5354983,61.6809376 C40.5893291,60.4157424 41.0094439,59.2420512 41.6811594,58.2733289 C41.208384,58.1708444 40.7215658,58.115942 40.2195345,58.115942 L35.4859295,58.115942 C34.9862386,58.115942 34.4994204,58.1708444 34.0289855,58.2708888 C34.7475105,59.307934 35.1734764,60.5731293 35.1816681,61.942029 C36.0523237,61.4418072 37.0493649,61.1575348 38.1107691,61.1575348 C38.9732331,61.1575348 39.7912281,61.346643 40.5354983,61.6809376 M32.115942,51.7391304 C32.115942,48.5698497 34.6861868,46 37.8568774,46 C41.0251614,46 43.5942029,48.5698497 43.5942029,51.7391304 C43.5942029,54.9084111 41.0251614,57.4782609 37.8568774,57.4782609 C34.6861868,57.4782609 32.115942,54.9084111 32.115942,51.7391304" id="Fill-9-Copy" fill="#303E51"></path>
                <path d="M56,99 L48,92" id="Line-2" stroke="#303E51" stroke-width="2" stroke-linecap="round"></path>
                <path d="M114,99 L106,92" id="Line-2-Copy" stroke="#303E51" stroke-width="2" stroke-linecap="round" transform="translate(109.500000, 95.500000) scale(-1, 1) translate(-109.500000, -95.500000) "></path>
                <g id="Group-7-Copy" transform="translate(65.000000, 98.000000)" stroke="#303E51" stroke-width="3">
                    <path d="M5.31565823,2.32291139 C6.56274684,2.32291139 7.57439241,3.33417722 7.57439241,4.57860759 C7.57439241,5.82607595 6.56274684,6.83772152 5.31565823,6.83772152 C4.07160759,6.83772152 3.05996203,5.82607595 3.05996203,4.57860759 C3.05996203,3.33417722 4.07160759,2.32291139 5.31565823,2.32291139 Z M1.64274684,9.55556962 L28.9480633,9.55556962 C29.6794557,9.55556962 29.7250253,8.66772152 29.7250253,8.18012658 L29.7250253,2.26860759 C29.7250253,0.992658228 29.1140127,-1.37667655e-13 27.8373038,-1.37667655e-13 L2.36198734,-1.37667655e-13 C1.08489873,-1.37667655e-13 0.189835443,0.992658228 0.189835443,2.26860759 L0.189835443,8.18012658 C0.189835443,8.66772152 0.388443038,9.55556962 1.64274684,9.55556962 Z" id="Stroke-1"></path>
                    <path d="M5.31565823,15.5585853 C6.56274684,15.5585853 7.57439241,16.5698511 7.57439241,17.8139017 C7.57439241,19.0613701 6.56274684,20.0730156 5.31565823,20.0730156 C4.07160759,20.0730156 3.05996203,19.0613701 3.05996203,17.8139017 C3.05996203,16.5698511 4.07160759,15.5585853 5.31565823,15.5585853 Z M1.64274684,22.7908637 L28.9480633,22.7908637 C29.6794557,22.7908637 29.7250253,21.9033954 29.7250253,21.4154207 L29.7250253,15.5042815 C29.7250253,14.2283321 29.1140127,13.2352941 27.8373038,13.2352941 L2.36198734,13.2352941 C1.08489873,13.2352941 0.189835443,14.2283321 0.189835443,15.5042815 L0.189835443,21.4154207 C0.189835443,21.9033954 0.388443038,22.7908637 1.64274684,22.7908637 Z" id="Stroke-3"></path>
                    <path d="M5.31565823,28.7934996 C6.56274684,28.7934996 7.57439241,29.8047655 7.57439241,31.0488161 C7.57439241,32.2966642 6.56274684,33.3083098 5.31565823,33.3083098 C4.07160759,33.3083098 3.05996203,32.2966642 3.05996203,31.0488161 C3.05996203,29.8047655 4.07160759,28.7934996 5.31565823,28.7934996 Z M1.64274684,36.0261579 L28.9480633,36.0261579 C29.6794557,36.0261579 29.7250253,35.1383098 29.7250253,34.6507148 L29.7250253,28.7391958 C29.7250253,27.4632465 29.1140127,26.4705882 27.8373038,26.4705882 L2.36198734,26.4705882 C1.08489873,26.4705882 0.189835443,27.4632465 0.189835443,28.7391958 L0.189835443,34.6507148 C0.189835443,35.1383098 0.388443038,36.0261579 1.64274684,36.0261579 Z" id="Stroke-5"></path>
                </g>
            </g>
        </g>
    </g>
</svg>