<?xml version="1.0" encoding="UTF-8" standalone="no"?>
<!-- Generator: Adobe Illustrator 21.0.0, SVG Export Plug-In . SVG Version: 6.00 Build 0)  -->

<svg
   xmlns:dc="http://purl.org/dc/elements/1.1/"
   xmlns:cc="http://creativecommons.org/ns#"
   xmlns:rdf="http://www.w3.org/1999/02/22-rdf-syntax-ns#"
   xmlns:svg="http://www.w3.org/2000/svg"
   xmlns="http://www.w3.org/2000/svg"
   xmlns:sodipodi="http://sodipodi.sourceforge.net/DTD/sodipodi-0.dtd"
   xmlns:inkscape="http://www.inkscape.org/namespaces/inkscape"
   version="1.1"
   id="Warstwa_1"
   x="0px"
   y="0px"
   width="32"
   height="32"
   viewBox="0 0 32.000001 32.000001"
   xml:space="preserve"
   sodipodi:docname="onepanel-logo.svg"
   inkscape:version="0.92.2 2405546, 2018-03-11"><metadata
   id="metadata43"><rdf:RDF><cc:Work
       rdf:about=""><dc:format>image/svg+xml</dc:format><dc:type
         rdf:resource="http://purl.org/dc/dcmitype/StillImage" /><dc:title></dc:title></cc:Work></rdf:RDF></metadata><defs
   id="defs41">
	

		
		
	</defs><sodipodi:namedview
   pagecolor="#ffffff"
   bordercolor="#666666"
   borderopacity="1"
   objecttolerance="10"
   gridtolerance="10"
   guidetolerance="10"
   inkscape:pageopacity="0"
   inkscape:pageshadow="2"
   inkscape:window-width="1920"
   inkscape:window-height="1015"
   id="namedview39"
   showgrid="false"
   inkscape:zoom="11.486844"
   inkscape:cx="23.887896"
   inkscape:cy="9.3747267"
   inkscape:window-x="0"
   inkscape:window-y="0"
   inkscape:window-maximized="1"
   inkscape:current-layer="Warstwa_1" />
<style
   type="text/css"
   id="style2">
	.st0{fill:#1E1E1C;}
	.st1{fill:#595959;}
	.st2{fill:#E84040;}
</style>

<g
   id="g857"
   transform="matrix(0.59645016,0,0,0.59645016,-13.058822,12.868635)"><path
     style="fill:#e84040;fill-opacity:1"
     inkscape:connector-curvature="0"
     id="path22"
     d="M 45.4,-0.79999847 23.2,21.400002 c -0.8,0.8 -1.2,1.8 -1.2,3 0,1.2 0.4,2.2 1.2,2.9 l 3.5,3.5 c 0.8,0.8 1.8,1.2 3,1.2 1.2,0 2.1,-0.4 2.9,-1.2 L 54.9,8.5000015 c -2.1,-0.8 -4,-2.1 -5.7,-3.7 -1.7,-1.6 -2.9,-3.5 -3.8,-5.59999997 z M 33.2,23.700002 c -0.4,0.4 -0.9,0.6 -1.5,0.6 -0.6,0 -1.1,-0.2 -1.5,-0.6 -0.4,-0.4 -0.6,-0.9 -0.6,-1.5 0,-0.6 0.2,-1.1 0.6,-1.5 0.4,-0.4 0.9,-0.6 1.5,-0.6 0.6,0 1.1,0.2 1.5,0.6 0.4,0.4 0.6,0.9 0.6,1.5 0,0.6 -0.2,1.1 -0.6,1.5 z m 0,0"
     class="st1" /><path
     style="fill:#e84040"
     inkscape:connector-curvature="0"
     id="path24"
     d="m 75.2,-6.4999985 c -0.2,-0.2 -0.4,-0.3 -0.8,-0.3 -0.2,0 -1,0.4 -2.3,1.2 -1.3,0.8 -2.8,1.7 -4.4,2.6 -1.6,1 -2.5,1.5 -2.6,1.6 l -6.3,-3.5 v -7.2999995 l 9.6,-5.5 c 0.3,-0.2 0.5,-0.5 0.5,-0.9 0,-0.4 -0.2,-0.7 -0.5,-0.9 -1,-0.7 -2.1,-1.2 -3.5,-1.5 -1.4,-0.4 -2.7,-0.5 -4,-0.5 -4,0 -7.5,1.4 -10.3,4.3 -2.9,2.9 -4.3,6.3 -4.3,10.2999995 0,4 1.4,7.50000003 4.3,10.3 2.9,2.9 6.3,4.3 10.3,4.3 3.1,0 5.9,-0.9 8.4,-2.7 2.6,-1.8 4.3,-4.19999997 5.4,-7.1 0.5,-1.5 0.7,-2.6 0.7,-3.5 0.1,-0.4 0,-0.6 -0.2,-0.9 z m 0,0"
     class="st2" /></g>

</svg>