<?xml version="1.0" encoding="UTF-8" standalone="no"?>
<svg
   xmlns:dc="http://purl.org/dc/elements/1.1/"
   xmlns:cc="http://creativecommons.org/ns#"
   xmlns:rdf="http://www.w3.org/1999/02/22-rdf-syntax-ns#"
   xmlns:svg="http://www.w3.org/2000/svg"
   xmlns="http://www.w3.org/2000/svg"
   xmlns:sodipodi="http://sodipodi.sourceforge.net/DTD/sodipodi-0.dtd"
   xmlns:inkscape="http://www.inkscape.org/namespaces/inkscape"
   viewBox="0 0 31.999999 31.999999"
   version="1.1"
   id="svg22"
   sodipodi:docname="provider-panel-logo.svg"
   width="32"
   height="32"
   inkscape:version="0.92.2 2405546, 2018-03-11">
  <metadata
     id="metadata26">
    <rdf:RDF>
      <cc:Work
         rdf:about="">
        <dc:format>image/svg+xml</dc:format>
        <dc:type
           rdf:resource="http://purl.org/dc/dcmitype/StillImage" />
        <dc:title>Zasób 4</dc:title>
      </cc:Work>
    </rdf:RDF>
  </metadata>
  <sodipodi:namedview
     pagecolor="#ffffff"
     bordercolor="#666666"
     borderopacity="1"
     objecttolerance="10"
     gridtolerance="10"
     guidetolerance="10"
     inkscape:pageopacity="0"
     inkscape:pageshadow="2"
     inkscape:window-width="1920"
     inkscape:window-height="1135"
     id="namedview24"
     showgrid="false"
     inkscape:zoom="6.5446476"
     inkscape:cx="17.950001"
     inkscape:cy="-20.25105"
     inkscape:window-x="0"
     inkscape:window-y="0"
     inkscape:window-maximized="1"
     inkscape:current-layer="svg22" />
  <defs
     id="defs4">
    <style
       id="style2">.cls-1{fill:#f63c3c;}.cls-2{fill:#fff;}</style>
  </defs>
  <title
     id="title6">Zasób 4</title>
  <g
     id="g849"
     transform="translate(1.7983481,0.03768083)">
    <path
       style="fill:#f63c3c;stroke-width:1.36256826"
       inkscape:connector-curvature="0"
       id="path8"
       d="m 26.78497,21.923556 c -2.302741,2.220986 -7.058104,3.747062 -12.576505,3.747062 -5.5184014,0 -10.341893,-1.526076 -12.5901306,-3.747062 a 4.2239615,4.2239615 0 0 0 -1.47157363,2.99765 c 0,3.719811 6.29506523,6.812841 14.06170423,6.812841 7.766639,0 14.061704,-3.024902 14.061704,-6.812841 a 4.2239615,4.2239615 0 0 0 -1.485199,-2.99765 z"
       class="cls-1" />
    <path
       style="fill:#f63c3c;stroke-width:1.36256826"
       inkscape:connector-curvature="0"
       id="path10"
       d="m 26.78497,12.930605 c -2.302741,2.220987 -7.058104,3.747063 -12.576505,3.747063 -5.5184014,0 -10.341893,-1.539702 -12.5901306,-3.747063 a 4.2103359,4.2103359 0 0 0 -1.47157363,2.99765 c 0,3.719812 6.29506523,6.812842 14.06170423,6.812842 7.766639,0 14.061704,-3.024902 14.061704,-6.812842 a 4.2103359,4.2103359 0 0 0 -1.485199,-2.99765 z"
       class="cls-1" />
    <ellipse
       style="fill:#f63c3c;stroke-width:1.36256826"
       id="ellipse12"
       ry="6.7447124"
       rx="14.061704"
       cy="6.9353037"
       cx="14.194839"
       class="cls-1" />
  </g>
</svg>
