<?xml version="1.0" encoding="UTF-8" standalone="no"?>
<svg width="107px" height="79px" viewBox="0 0 107 79" version="1.1" xmlns="http://www.w3.org/2000/svg" xmlns:xlink="http://www.w3.org/1999/xlink">
    <!-- Generator: Sketch 43.2 (39069) - http://www.bohemiancoding.com/sketch -->
    <title>Space</title>
    <desc>Created with Sketch.</desc>
    <defs></defs>
    <g id="Onepanel-for-provider-New-color" stroke="none" stroke-width="1" fill="none" fill-rule="evenodd">
        <g id="Wersja-3-Copy" transform="translate(-694.000000, -450.000000)">
            <g id="node-" transform="translate(567.000000, 91.000000)">
                <g id="node-copy-3" transform="translate(1.000000, 0.000000)">
                    <g id="Page-1" transform="translate(126.000000, 85.000000)">
                        <g id="Space" transform="translate(-0.000000, 274.000000)">
                            <path d="M78.5308282,60.6337998 C79.7449131,60.5046345 99.1704499,58.2095356 99.1704499,43.411881 C99.1704499,35.6599959 97.0126534,29.1809793 94.8870654,24.6779053 C97.0130112,29.1788325 99.1720603,35.6574913 99.1720603,43.411881 C99.1720603,58.2095356 79.7449131,60.5046345 78.5308282,60.6337998 L78.5308282,60.6337998 Z M94.1119121,19.9252668 C94.0025818,19.662106 93.9331544,19.4016286 93.8631902,19.1434769 C93.9535532,19.4016286 94.0396217,19.6604959 94.1119121,19.9252668 L94.1119121,19.9252668 Z M94.1954755,20.0438771 L94.1954755,20.1102487 C94.1845603,20.0880652 94.1757924,20.0660606 94.1654141,20.0438771 L94.1954755,20.0438771 Z M105.967894,34.2171732 C105.367561,31.6728675 104.36999,29.2974427 103.072699,27.1758761 C101.943252,26.3724394 100.75386,25.6868973 99.5211656,25.1396444 C99.2289622,25.0079745 98.9351483,24.8748734 98.6375767,24.7596623 C98.6300613,24.7567999 98.6241564,24.7541164 98.6171779,24.751254 C98.6237986,24.7535797 98.6304192,24.7562632 98.6375767,24.7589467 C98.9351483,24.8741578 99.2289622,25.0072589 99.5211656,25.1387499 C100.75386,25.685645 101.943252,26.3708293 103.072699,27.1739082 C100.732924,23.3472524 97.4177658,20.3106159 93.6781697,18.6162607 C93.6806748,18.6232378 93.68318,18.6302149 93.6855061,18.637192 C93.6454243,18.6209121 93.5999744,18.6044534 93.5649029,18.5890681 C93.2861196,18.4638386 92.9949898,18.3364623 92.7104806,18.2264392 C92.1468303,17.9938701 91.4708078,17.8867094 90.8545501,17.6766817 L90.7963957,17.8037002 C90.7944274,17.8013745 90.7921012,17.798691 90.7921012,17.798691 L90.8498978,17.6716725 C90.1364775,17.4281906 89.4980317,17.0469562 89.1891871,16.1682029 C88.9640849,15.3477708 88.687091,14.5572148 88.3778885,13.7843699 C87.9962168,12.2719553 87.414136,10.8409399 86.6647495,9.51619066 C86.6645706,9.51601176 86.6643916,9.51583286 86.6640337,9.51565396 C84.1354806,5.04603415 79.6837168,1.80777814 74.4310327,0.935286313 C74.1207566,0.857644023 73.8124489,0.775887048 73.5000256,0.715955786 C67.5729294,-0.417907901 66.7891871,-0.040967101 63.1118609,0.715955786 C59.2115798,1.51867689 55.6280164,3.79946391 52.6732362,6.87080689 C52.572137,6.97671527 52.4656697,7.07528878 52.3645706,7.18674303 C51.7556493,7.81342724 51.25409,8.52795099 50.5381646,8.94711203 C49.105956,8.48322617 47.7141871,7.64579861 46.2053937,7.35258267 C44.361273,6.99192171 43.2541922,6.99192171 41.2585123,7.30964684 C37.0758691,7.9735421 32.9501278,10.1233748 30.2270706,13.9861683 C29.0251534,15.459225 28.340184,17.3047501 27.713727,19.193032 C27.4986452,19.8367117 27.2914366,20.4852216 27.0747444,21.1244288 C27.0747444,21.1244288 27.0595348,21.1281856 27.0326943,21.1299746 C26.9861708,21.1362361 26.8929448,21.1460756 26.7637526,21.1619976 C26.2689928,21.2167408 25.7744121,21.2958143 25.2900307,21.4129933 C22.6424847,21.9445031 17.5973671,23.4121929 13.9100204,27.085353 C11.8957311,29.5672229 10.4293456,32.5013501 9.64828732,35.7029317 C9.24084867,37.3727777 9,39.1082797 9,40.9006717 C9,44.2274828 9.74956544,47.3798672 11.08318,50.2059392 C11.8175358,51.7632575 12.7288599,53.2266537 13.7908487,54.5603479 C15.5553425,56.7763734 17.7347904,58.6267287 20.2130624,60.0262578 C20.606365,60.2486296 21.007362,60.3958638 21.4151585,60.6397035 C24.3091002,62.1023841 27.5519683,62.8342611 30.9818252,62.8342611 L85.0190695,62.8342611 C97.1398773,62.8342611 107,52.9973048 107,40.8800982 C107,38.5561965 106.637296,36.3353407 105.967894,34.2171732 L105.967894,34.2171732 Z" id="Fill-1-Copy" fill="#E2E1E0"></path>
                            <path d="M19.8023278,69.2878661 L19.8022955,69.2878661 L19.8022955,61.3812169 L19.8106871,61.3812169 C28.7413113,61.3812169 36.2416478,58.6175602 39.6663985,54.5425018 L39.6663985,59.4521913 C39.6663985,64.7946047 30.5651985,69.2878661 19.8106871,69.2878661 L19.8023278,69.2878661 L19.8023278,69.3084213 C9.0516895,69.3060011 0.000355030234,64.7932172 0.000355030234,59.4522559 L0.000355030234,54.5425663 C3.36313687,58.61585 10.8750925,61.3893486 19.8023278,61.3909621 L19.8023278,69.2878661 Z M19.8023278,71.2801868 L19.8106871,71.2801868 C28.7413113,71.2801868 36.2416478,68.4810345 39.6663985,64.4043627 L39.6663985,69.1170515 C39.6663985,74.4596263 30.5651985,79 19.8106871,79 L19.8022955,79 L19.8022955,71.2801868 L19.8023278,71.2801868 L19.8023278,78.9740398 C9.0516895,78.9716196 0.000355030234,74.4581903 0.000355030234,69.1170676 L0.000355030234,64.4043788 C3.36313687,68.4797599 10.8750925,71.2524518 19.8023278,71.2542266 L19.8023278,71.2801868 Z M19.8106871,31 C30.3804214,31 39.318953,35.3645091 39.6212129,40.5873668 C39.318953,45.8110312 30.3804214,50.1752176 19.8106871,50.1752176 L19.8022955,50.1752176 L19.8022955,50.175863 C9.23611157,50.1734428 0.3017757,45.8097405 0,40.5894643 C0.3017757,35.3678973 9.23611157,31.0059697 19.8022955,31.0038722 L19.8022955,31 L19.8106871,31 Z M0.000355030234,45.2731758 C3.36313687,49.3487182 10.8750925,52.1201194 19.8023278,52.1215715 L19.8023278,59.443511 C9.0516895,59.4412522 0.000355030234,54.9275002 0.000355030234,49.5873456 L0.000355030234,45.2731758 Z M39.6663985,49.5873779 C39.6663985,54.9288232 30.5651985,59.4514492 19.8106871,59.4514492 L19.8022955,59.4514492 L19.8022955,52.1051467 L19.8106871,52.1051467 C28.7413113,52.1051467 36.2416478,49.3505253 39.6663985,45.273208 L39.6663985,49.5873779 Z" id="Combined-Shape-Copy-3" fill="#EE3F3F"></path>
                        </g>
                    </g>
                </g>
            </g>
        </g>
    </g>
</svg>