<?xml version="1.0" encoding="UTF-8" standalone="no"?>
<svg width="122px" height="83px" viewBox="0 0 122 83" version="1.1" xmlns="http://www.w3.org/2000/svg" xmlns:xlink="http://www.w3.org/1999/xlink">
    <!-- Generator: Sketch 43.2 (39069) - http://www.bohemiancoding.com/sketch -->
    <title>Group</title>
    <desc>Created with Sketch.</desc>
    <defs>
        <polygon id="path-1" points="2.70358438 57.1220464 2.1515476e-05 57.1220464 2.1515476e-05 0.00550949015 2.70358438 0.00550949015 2.70358438 57.1220464"></polygon>
        <polygon id="path-3" points="2.59388414 57.1220464 0.00994732124 57.1220464 0.00994732124 0.00552396976 2.59388414 0.00552396976 2.59388414 57.1220464"></polygon>
        <polygon id="path-5" points="2.59655923 28.563778 2.59655923 57.1220464 0.012048666 57.1220464 0.012048666 0.00550949015 2.59655923 0.00550949015 2.59655923 28.563778"></polygon>
    </defs>
    <g id="Onepanel-for-provider-New-color" stroke="none" stroke-width="1" fill="none" fill-rule="evenodd">
        <g id="Wersja-3-Copy" transform="translate(-678.000000, -175.000000)">
            <g id="node-" transform="translate(567.000000, 91.000000)">
                <g id="node-copy-3" transform="translate(1.000000, 0.000000)">
                    <g id="Page-1" transform="translate(110.000000, 84.000000)">
                        <g id="Group">
                            <path d="M78.5308282,60.6337998 C79.7449131,60.5046345 99.1704499,58.2095356 99.1704499,43.411881 C99.1704499,35.6599959 97.0126534,29.1809793 94.8870654,24.6779053 C97.0130112,29.1788325 99.1720603,35.6574913 99.1720603,43.411881 C99.1720603,58.2095356 79.7449131,60.5046345 78.5308282,60.6337998 L78.5308282,60.6337998 Z M94.1119121,19.9252668 C94.0025818,19.662106 93.9331544,19.4016286 93.8631902,19.1434769 C93.9535532,19.4016286 94.0396217,19.6604959 94.1119121,19.9252668 L94.1119121,19.9252668 Z M94.1954755,20.0438771 L94.1954755,20.1102487 C94.1845603,20.0880652 94.1757924,20.0660606 94.1654141,20.0438771 L94.1954755,20.0438771 Z M105.967894,34.2171732 C105.367561,31.6728675 104.36999,29.2974427 103.072699,27.1758761 C101.943252,26.3724394 100.75386,25.6868973 99.5211656,25.1396444 C99.2289622,25.0079745 98.9351483,24.8748734 98.6375767,24.7596623 C98.6300613,24.7567999 98.6241564,24.7541164 98.6171779,24.751254 C98.6237986,24.7535797 98.6304192,24.7562632 98.6375767,24.7589467 C98.9351483,24.8741578 99.2289622,25.0072589 99.5211656,25.1387499 C100.75386,25.685645 101.943252,26.3708293 103.072699,27.1739082 C100.732924,23.3472524 97.4177658,20.3106159 93.6781697,18.6162607 C93.6806748,18.6232378 93.68318,18.6302149 93.6855061,18.637192 C93.6454243,18.6209121 93.5999744,18.6044534 93.5649029,18.5890681 C93.2861196,18.4638386 92.9949898,18.3364623 92.7104806,18.2264392 C92.1468303,17.9938701 91.4708078,17.8867094 90.8545501,17.6766817 L90.7963957,17.8037002 C90.7944274,17.8013745 90.7921012,17.798691 90.7921012,17.798691 L90.8498978,17.6716725 C90.1364775,17.4281906 89.4980317,17.0469562 89.1891871,16.1682029 C88.9640849,15.3477708 88.687091,14.5572148 88.3778885,13.7843699 C87.9962168,12.2719553 87.414136,10.8409399 86.6647495,9.51619066 C86.6645706,9.51601176 86.6643916,9.51583286 86.6640337,9.51565396 C84.1354806,5.04603415 79.6837168,1.80777814 74.4310327,0.935286313 C74.1207566,0.857644023 73.8124489,0.775887048 73.5000256,0.715955786 C67.5729294,-0.417907901 66.7891871,-0.040967101 63.1118609,0.715955786 C59.2115798,1.51867689 55.6280164,3.79946391 52.6732362,6.87080689 C52.572137,6.97671527 52.4656697,7.07528878 52.3645706,7.18674303 C51.7556493,7.81342724 51.25409,8.52795099 50.5381646,8.94711203 C49.105956,8.48322617 47.7141871,7.64579861 46.2053937,7.35258267 C44.361273,6.99192171 43.2541922,6.99192171 41.2585123,7.30964684 C37.0758691,7.9735421 32.9501278,10.1233748 30.2270706,13.9861683 C29.0251534,15.459225 28.340184,17.3047501 27.713727,19.193032 C27.4986452,19.8367117 27.2914366,20.4852216 27.0747444,21.1244288 C27.0747444,21.1244288 27.0595348,21.1281856 27.0326943,21.1299746 C26.9861708,21.1362361 26.8929448,21.1460756 26.7637526,21.1619976 C26.2689928,21.2167408 25.7744121,21.2958143 25.2900307,21.4129933 C22.6424847,21.9445031 17.5973671,23.4121929 13.9100204,27.085353 C11.8957311,29.5672229 10.4293456,32.5013501 9.64828732,35.7029317 C9.24084867,37.3727777 9,39.1082797 9,40.9006717 C9,44.2274828 9.74956544,47.3798672 11.08318,50.2059392 C11.8175358,51.7632575 12.7288599,53.2266537 13.7908487,54.5603479 C15.5553425,56.7763734 17.7347904,58.6267287 20.2130624,60.0262578 C20.606365,60.2486296 21.007362,60.3958638 21.4151585,60.6397035 C24.3091002,62.1023841 27.5519683,62.8342611 30.9818252,62.8342611 L85.0190695,62.8342611 C97.1398773,62.8342611 107,52.9973048 107,40.8800982 C107,38.5561965 106.637296,36.3353407 105.967894,34.2171732 L105.967894,34.2171732 Z" id="Fill-1" fill="#E2E1E0"></path>
                            <path d="M19.8023278,69.2878661 L19.8022955,69.2878661 L19.8022955,61.3812169 L19.8106871,61.3812169 C28.7413113,61.3812169 36.2416478,58.6175602 39.6663985,54.5425018 L39.6663985,59.4521913 C39.6663985,64.7946047 30.5651985,69.2878661 19.8106871,69.2878661 L19.8023278,69.2878661 L19.8023278,69.3084213 C9.0516895,69.3060011 0.000355030234,64.7932172 0.000355030234,59.4522559 L0.000355030234,54.5425663 C3.36313687,58.61585 10.8750925,61.3893486 19.8023278,61.3909621 L19.8023278,69.2878661 Z M19.8023278,71.2801868 L19.8106871,71.2801868 C28.7413113,71.2801868 36.2416478,68.4810345 39.6663985,64.4043627 L39.6663985,69.1170515 C39.6663985,74.4596263 30.5651985,79 19.8106871,79 L19.8022955,79 L19.8022955,71.2801868 L19.8023278,71.2801868 L19.8023278,78.9740398 C9.0516895,78.9716196 0.000355030234,74.4581903 0.000355030234,69.1170676 L0.000355030234,64.4043788 C3.36313687,68.4797599 10.8750925,71.2524518 19.8023278,71.2542266 L19.8023278,71.2801868 Z M19.8106871,31 C30.3804214,31 39.318953,35.3645091 39.6212129,40.5873668 C39.318953,45.8110312 30.3804214,50.1752176 19.8106871,50.1752176 L19.8022955,50.1752176 L19.8022955,50.175863 C9.23611157,50.1734428 0.3017757,45.8097405 0,40.5894643 C0.3017757,35.3678973 9.23611157,31.0059697 19.8022955,31.0038722 L19.8022955,31 L19.8106871,31 Z M0.000355030234,45.2731758 C3.36313687,49.3487182 10.8750925,52.1201194 19.8023278,52.1215715 L19.8023278,59.443511 C9.0516895,59.4412522 0.000355030234,54.9275002 0.000355030234,49.5873456 L0.000355030234,45.2731758 Z M39.6663985,49.5873779 C39.6663985,54.9288232 30.5651985,59.4514492 19.8106871,59.4514492 L19.8022955,59.4514492 L19.8022955,52.1051467 L19.8106871,52.1051467 C28.7413113,52.1051467 36.2416478,49.3505253 39.6663985,45.273208 L39.6663985,49.5873779 Z" id="Combined-Shape" fill="#EE3F3F"></path>
                            <g id="Group-51" transform="translate(54.000000, 25.000000)">
                                <path d="M18.0733422,33.5512002 C18.0733422,34.4078861 17.385349,35.1024728 16.5366352,35.1024728 C15.6880649,35.1024728 15,34.4078861 15,33.5512002 C15,32.6945143 15.6880649,32 16.5366352,32 C17.385349,32 18.0733422,32.6945143 18.0733422,33.5512002" id="Fill-8" fill="#1C98FC"></path>
                                <path d="M18.0733422,51.9407779 C18.0733422,52.7974638 17.385349,53.4920505 16.5366352,53.4920505 C15.6880649,53.4920505 15,52.7974638 15,51.9407779 C15,51.084092 15.6880649,50.3895777 16.5366352,50.3895777 C17.385349,50.3895777 18.0733422,51.084092 18.0733422,51.9407779" id="Fill-8-Copy" fill="#1C98FC"></path>
                                <path d="M15.0734139,33.5512002 C15.0734139,34.4079585 14.385349,35.1025452 13.5367069,35.1025452 C12.6879932,35.1025452 12,34.4079585 12,33.5512002 C12,32.6945867 12.6879932,32 13.5367069,32 C14.385349,32 15.0734139,32.6945867 15.0734139,33.5512002" id="Fill-14" fill="#80D7A8"></path>
                                <path d="M15.0734139,51.9407779 C15.0734139,52.7975362 14.385349,53.4921229 13.5367069,53.4921229 C12.6879932,53.4921229 12,52.7975362 12,51.9407779 C12,51.0841644 12.6879932,50.3895777 13.5367069,50.3895777 C14.385349,50.3895777 15.0734139,51.0841644 15.0734139,51.9407779" id="Fill-14-Copy" fill="#80D7A8"></path>
                                <path d="M12.1247641,33.5771911 C12.1247641,34.4482118 11.4252961,35.1543822 10.5623104,35.1543822 C9.69961153,35.1543822 9,34.4482118 9,33.5771911 C9,32.7061704 9.69961153,32 10.5623104,32 C11.4252961,32 12.1247641,32.7061704 12.1247641,33.5771911" id="Fill-20" fill="#F04848"></path>
                                <path d="M12.1247641,51.9667688 C12.1247641,52.8377895 11.4252961,53.5439599 10.5623104,53.5439599 C9.69961153,53.5439599 9,52.8377895 9,51.9667688 C9,51.0957481 9.69961153,50.3895777 10.5623104,50.3895777 C11.4252961,50.3895777 12.1247641,51.0957481 12.1247641,51.9667688" id="Fill-20-Copy" fill="#F04848"></path>
                                <path d="M16.2092295,26.1433393 C16.2092295,28.4316963 14.3715927,30.2868234 12.1046506,30.2868234 C9.83770843,30.2868234 8,28.4316963 8,26.1433393 C8,23.8550547 9.83770843,22 12.1046506,22 C14.3715927,22 16.2092295,23.8550547 16.2092295,26.1433393" id="Fill-26" fill="#B6B6B6"></path>
                                <path d="M16.2092295,44.532917 C16.2092295,46.821274 14.3715927,48.6764011 12.1046506,48.6764011 C9.83770843,48.6764011 8,46.821274 8,44.532917 C8,42.2446324 9.83770843,40.3895777 12.1046506,40.3895777 C14.3715927,40.3895777 16.2092295,42.2446324 16.2092295,44.532917" id="Fill-26-Copy" fill="#B6B6B6"></path>
                                <path d="M11.9584395,23.8433219 C13.3726554,23.8433219 14.5187161,25.000532 14.5187161,26.4277144 C14.5187161,27.8551864 13.3726554,29.0121793 11.9584395,29.0121793 C10.5447257,29.0121793 9.3984499,27.8551864 9.3984499,26.4277144 C9.3984499,25.000532 10.5447257,23.8433219 11.9584395,23.8433219 M16.045243,32.9610575 C16.5056754,32.9610575 16.8783244,33.3375996 16.8783244,33.8017434 C16.8783244,34.266032 16.5056754,34.6427914 16.045243,34.6427914 C15.5855278,34.6427914 15.2129505,34.266032 15.2129505,33.8017434 C15.2129505,33.3375996 15.5855278,32.9610575 16.045243,32.9610575 M13.2695243,34.6427914 C12.8096657,34.6427914 12.4362278,34.266032 12.4362278,33.8017434 C12.4362278,33.3375996 12.8096657,32.9610575 13.2695243,32.9610575 C13.7297415,32.9610575 14.1026057,33.3375996 14.1026057,33.8017434 C14.1026057,34.266032 13.7297415,34.6427914 13.2695243,34.6427914 M10.5678907,34.6427914 C10.1078887,34.6427914 9.73545484,34.266032 9.73545484,33.8017434 C9.73545484,33.3375996 10.1078887,32.9610575 10.5678907,32.9610575 C11.0283231,32.9610575 11.4008287,33.3375996 11.4008287,33.8017434 C11.4008287,34.266032 11.0283231,34.6427914 10.5678907,34.6427914 M6,23.691648 C6,21.6480688 7.62886916,20 9.65312207,20 L33.3347654,20 L33.3347654,37.1063515 L9.65312207,37.1063515 C7.62886916,37.1063515 6,35.4479299 6,33.4039886 L6,23.691648 Z M56.9972122,37.1063733 L33.3346363,37.1063733 L33.3346363,20.0000217 L56.9972122,20.0000217 C59.0217467,20.0000217 60.6694018,21.6480905 60.6694018,23.6916697 L60.6694018,33.403938 C60.6694018,35.4479516 59.0217467,37.1063733 56.9972122,37.1063733 Z" id="Combined-Shape" fill="#363636"></path>
                                <path d="M11.9584395,42.2328996 C13.3726554,42.2328996 14.5187161,43.3901097 14.5187161,44.8172921 C14.5187161,46.244764 13.3726554,47.401757 11.9584395,47.401757 C10.5447257,47.401757 9.3984499,46.244764 9.3984499,44.8172921 C9.3984499,43.3901097 10.5447257,42.2328996 11.9584395,42.2328996 M16.045243,51.3506352 C16.5056754,51.3506352 16.8783244,51.7271773 16.8783244,52.1913211 C16.8783244,52.6556097 16.5056754,53.032369 16.045243,53.032369 C15.5855278,53.032369 15.2129505,52.6556097 15.2129505,52.1913211 C15.2129505,51.7271773 15.5855278,51.3506352 16.045243,51.3506352 M13.2695243,53.032369 C12.8096657,53.032369 12.4362278,52.6556097 12.4362278,52.1913211 C12.4362278,51.7271773 12.8096657,51.3506352 13.2695243,51.3506352 C13.7297415,51.3506352 14.1026057,51.7271773 14.1026057,52.1913211 C14.1026057,52.6556097 13.7297415,53.032369 13.2695243,53.032369 M10.5678907,53.032369 C10.1078887,53.032369 9.73545484,52.6556097 9.73545484,52.1913211 C9.73545484,51.7271773 10.1078887,51.3506352 10.5678907,51.3506352 C11.0283231,51.3506352 11.4008287,51.7271773 11.4008287,52.1913211 C11.4008287,52.6556097 11.0283231,53.032369 10.5678907,53.032369 M6,42.0812257 C6,40.0376465 7.62886916,38.3895777 9.65312207,38.3895777 L33.3347654,38.3895777 L33.3347654,55.4959292 L9.65312207,55.4959292 C7.62886916,55.4959292 6,53.8375075 6,51.7935663 L6,42.0812257 Z M56.9972122,55.495951 L33.3346363,55.495951 L33.3346363,38.3895994 L56.9972122,38.3895994 C59.0217467,38.3895994 60.6694018,40.0376682 60.6694018,42.0812474 L60.6694018,51.7935157 C60.6694018,53.8375293 59.0217467,55.495951 56.9972122,55.495951 Z" id="Combined-Shape-Copy-2" fill="#363636"></path>
                                <path d="M17.9407648,15.5630644 C17.9407648,16.4197503 17.2528434,17.1142647 16.4041296,17.1142647 C15.5554158,17.1142647 14.8673509,16.4197503 14.8673509,15.5630644 C14.8673509,14.7063785 15.5554158,14.0117918 16.4041296,14.0117918 C17.2528434,14.0117918 17.9407648,14.7063785 17.9407648,15.5630644" id="Fill-4" fill="#1C98FC"></path>
                                <path d="M15.1263829,15.6537357 C15.1263829,16.5104216 14.4384615,17.2049359 13.5897477,17.2049359 C12.7411774,17.2049359 12.0529691,16.5104216 12.0529691,15.6537357 C12.0529691,14.7970498 12.7411774,14.1025355 13.5897477,14.1025355 C14.4384615,14.1025355 15.1263829,14.7970498 15.1263829,15.6537357" id="Fill-10" fill="#80D7A8"></path>
                                <path d="M12.2437898,15.4076259 C12.2437898,16.2787914 11.54425,16.9848894 10.6814794,16.9848894 C9.8187089,16.9848894 9.11909737,16.2787914 9.11909737,15.4076259 C9.11909737,14.5366052 9.8187089,13.8305796 10.6814794,13.8305796 C11.54425,13.8305796 12.2437898,14.5366052 12.2437898,15.4076259" id="Fill-16" fill="#E23C4A"></path>
                                <path d="M16.5337173,8.40396343 C16.5337173,10.6923204 14.6960806,12.5473751 12.4291384,12.5473751 C10.1623397,12.5473751 8.32463129,10.6923204 8.32463129,8.40396343 C8.32463129,6.11560647 10.1623397,4.26055172 12.4291384,4.26055172 C14.6960806,4.26055172 16.5337173,6.11560647 16.5337173,8.40396343" id="Fill-22" fill="#B6B6B6"></path>
                                <path d="M16.2817209,16.2776402 C15.8220069,16.2776402 15.4494306,15.9008809 15.4494306,15.4366647 C15.4494306,14.9724485 15.8220069,14.5959064 16.2817209,14.5959064 C16.7421521,14.5959064 17.1147284,14.9724485 17.1147284,15.4366647 C17.1147284,15.9008809 16.7421521,16.2776402 16.2817209,16.2776402 L16.2817209,16.2776402 Z M12.1949282,10.6470282 C10.781218,10.6470282 9.63487351,9.48996286 9.63487351,8.06249088 C9.63487351,6.63538089 10.781218,5.47817077 12.1949282,5.47817077 C13.6090686,5.47817077 14.755198,6.63538089 14.755198,8.06249088 C14.755198,9.48996286 13.6090686,10.6470282 12.1949282,10.6470282 L12.1949282,10.6470282 Z M13.5060095,16.2776402 C13.0461521,16.2776402 12.6727151,15.9008809 12.6727151,15.4366647 C12.6727151,14.9724485 13.0461521,14.5959064 13.5060095,14.5959064 C13.9662255,14.5959064 14.3390887,14.9724485 14.3390887,15.4366647 C14.3390887,15.9008809 13.9662255,16.2776402 13.5060095,16.2776402 L13.5060095,16.2776402 Z M10.804383,16.2776402 C10.3443822,16.2776402 9.97194928,15.9008809 9.97194928,15.4366647 C9.97194928,14.9724485 10.3443822,14.5959064 10.804383,14.5959064 C11.2648142,14.5959064 11.637247,14.9724485 11.637247,15.4366647 C11.637247,15.9008809 11.2648142,16.2776402 10.804383,16.2776402 L10.804383,16.2776402 Z M9.88961673,1.63492129 L33.5711262,1.63492129 L33.5711262,18.7412004 L9.88961673,18.7412004 C7.86529742,18.7412004 6.23650425,17.0827787 6.23650425,15.0387651 L6.23650425,5.32656929 C6.23650425,3.28299007 7.86529742,1.63492129 9.88961673,1.63492129 Z M60.9058845,15.0387796 C60.9058845,17.0827208 59.2582294,18.7412149 57.2336949,18.7412149 L33.5711191,18.7412149 L33.5711191,1.63486338 L57.2336949,1.63486338 C59.2582294,1.63486338 60.9058845,3.28300455 60.9058845,5.32658377 L60.9058845,15.0387796 Z" id="Combined-Shape" fill="#363636"></path>
                                <g id="Group-42">
                                    <mask id="mask-2" fill="white">
                                        <use xlink:href="#path-1"></use>
                                    </mask>
                                    <g id="Clip-41"></g>
                                    <path d="M2.58403005,0.00550949015 C1.15712376,0.00550949015 2.1515476e-05,1.17350692 2.1515476e-05,2.61430014 L2.1515476e-05,54.5134802 C2.1515476e-05,55.954201 1.15712376,57.1220537 2.58403005,57.1220537 C2.62419227,57.1220537 2.66392418,57.1207505 2.70358438,57.1190129 L2.70358438,0.00855020745 C2.66392418,0.00674025668 2.62419227,0.00550949015 2.58403005,0.00550949015" id="Fill-40" fill="#B6B6B6" mask="url(#mask-2)"></path>
                                </g>
                                <path d="M2.70358438,0.00858640647 L2.70358438,57.1189767 C4.07533934,57.0558457 5.1684689,55.9137667 5.1684689,54.513444 L5.1684689,2.61433634 C5.1684689,1.21394122 4.07533934,0.0716450914 2.70358438,0.00858640647" id="Fill-43" fill="#B6B6B6"></path>
                                <g id="Group-47" transform="translate(61.964568, 0.000000)">
                                    <mask id="mask-4" fill="white">
                                        <use xlink:href="#path-3"></use>
                                    </mask>
                                    <g id="Clip-46"></g>
                                    <path d="M0.00994732124,2.61431462 L0.00994732124,54.5134223 C0.00994732124,55.9542155 1.16704956,57.1220681 2.59388414,57.1220681 L2.59388414,0.00552396976 C1.16704956,0.00552396976 0.00994732124,1.1735938 0.00994732124,2.61431462" id="Fill-45" fill="#B6B6B6" mask="url(#mask-4)"></path>
                                </g>
                                <g id="Group-50" transform="translate(64.546425, 0.000000)">
                                    <mask id="mask-6" fill="white">
                                        <use xlink:href="#path-5"></use>
                                    </mask>
                                    <g id="Clip-49"></g>
                                    <path d="M0.012048666,0.00550949015 L0.012048666,0.00550949015 L0.012048666,57.1220537 C1.43945699,57.1220537 2.59655923,55.954201 2.59655923,54.5134802 L2.59655923,2.61430014 C2.59655923,1.17350692 1.43945699,0.00550949015 0.012048666,0.00550949015" id="Fill-48" fill="#B6B6B6" mask="url(#mask-6)"></path>
                                </g>
                            </g>
                        </g>
                    </g>
                </g>
            </g>
        </g>
    </g>
</svg>