<?xml version="1.0" encoding="UTF-8" standalone="no"?>
<!-- Generator: Adobe Illustrator 21.0.0, SVG Export Plug-In . SVG Version: 6.00 Build 0)  -->

<svg
   xmlns:dc="http://purl.org/dc/elements/1.1/"
   xmlns:cc="http://creativecommons.org/ns#"
   xmlns:rdf="http://www.w3.org/1999/02/22-rdf-syntax-ns#"
   xmlns:svg="http://www.w3.org/2000/svg"
   xmlns="http://www.w3.org/2000/svg"
   xmlns:sodipodi="http://sodipodi.sourceforge.net/DTD/sodipodi-0.dtd"
   xmlns:inkscape="http://www.inkscape.org/namespaces/inkscape"
   version="1.1"
   id="Warstwa_1"
   x="0px"
   y="0px"
   width="48"
   height="48"
   viewBox="0 0 48.000001 47.999999"
   xml:space="preserve"
   inkscape:version="0.91 r13725"
   sodipodi:docname="onezone.svg"><metadata
     id="metadata47"><rdf:RDF><cc:Work
         rdf:about=""><dc:format>image/svg+xml</dc:format><dc:type
           rdf:resource="http://purl.org/dc/dcmitype/StillImage" /><dc:title /></cc:Work></rdf:RDF></metadata><defs
     id="defs45" /><sodipodi:namedview
     pagecolor="#ffffff"
     bordercolor="#666666"
     borderopacity="1"
     objecttolerance="10"
     gridtolerance="10"
     guidetolerance="10"
     inkscape:pageopacity="0"
     inkscape:pageshadow="2"
     inkscape:window-width="1371"
     inkscape:window-height="765"
     id="namedview43"
     showgrid="false"
     inkscape:zoom="1.0351377"
     inkscape:cx="-110.6133"
     inkscape:cy="32.200001"
     inkscape:window-x="596"
     inkscape:window-y="278"
     inkscape:window-maximized="0"
     inkscape:current-layer="Warstwa_1" /><style
     type="text/css"
     id="style3">
	.st0{fill:#1E1E1C;}
	.st1{fill:#595959;}
	.st2{fill:#E84040;}
</style><g
     id="g29"
     style="fill:#ffffff"
     transform="matrix(0.63772937,0,0,0.63772937,-5.9732801,-2.3382228)"><path
       class="st2"
       d="M 40.9,33.5 38,30.8 c 0.3,-0.6 0.6,-1.3 0.6,-2.1 0,-2.4 -1.9,-4.3 -4.3,-4.3 -2.4,0 -4.3,1.9 -4.3,4.3 0,2.4 1.9,4.3 4.3,4.3 0.8,0 1.6,-0.3 2.3,-0.7 l 2.9,2.8 c 0.3,-0.6 0.8,-1.1 1.4,-1.6 l 0,0 z m 0,0"
       id="path31"
       style="fill:#ffffff"
       inkscape:connector-curvature="0" /><path
       class="st2"
       d="m 53.2,33.2 3.9,-6.5 c 0.4,0.1 0.8,0.2 1.2,0.2 2.4,0 4.3,-1.9 4.3,-4.3 0,-2.4 -1.9,-4.3 -4.3,-4.3 -2.4,0 -4.3,1.8 -4.3,4.2 0,1.2 0.5,2.3 1.3,3 L 51.4,32 c 0.6,0.4 1.3,0.8 1.8,1.2 l 0,0 z m 0,0"
       id="path33"
       style="fill:#ffffff"
       inkscape:connector-curvature="0" /><path
       class="st2"
       d="m 66.6,38.7 c -1.9,0 -3.4,1.2 -4.1,2.8 L 57.2,41 c 0,0 0,0.1 0,0.1 0,0.7 -0.1,1.4 -0.2,2.1 l 5.4,0.5 c 0.3,2.1 2.1,3.7 4.3,3.7 2.4,0 4.3,-1.9 4.3,-4.3 0,-2.5 -2,-4.4 -4.4,-4.4 l 0,0 z m 0,0"
       id="path35"
       style="fill:#ffffff"
       inkscape:connector-curvature="0" /><path
       class="st2"
       d="m 51.8,55.7 -1.2,-5.3 c -0.7,0.2 -1.4,0.4 -2.1,0.5 l 1.2,5.3 c -1.4,0.7 -2.3,2.2 -2.3,3.8 0,2.4 1.9,4.3 4.3,4.3 2.4,0 4.3,-1.9 4.3,-4.3 0,-2.3 -1.9,-4.2 -4.2,-4.3 l 0,0 z m 0,0"
       id="path37"
       style="fill:#ffffff"
       inkscape:connector-curvature="0" /><path
       class="st2"
       d="m 37.6,43.2 -6.7,2.3 c -0.8,-1.2 -2.1,-2 -3.6,-2 -2.4,0 -4.3,1.9 -4.3,4.3 0,2.4 1.9,4.3 4.3,4.3 2.4,0 4.3,-1.9 4.3,-4.3 0,-0.1 0,-0.2 0,-0.3 l 6.7,-2.3 c -0.3,-0.6 -0.5,-1.3 -0.7,-2 l 0,0 z m 0,0"
       id="path39"
       style="fill:#ffffff"
       inkscape:connector-curvature="0" /><path
       class="st2"
       d="m 54.7,41.1 c 0,4.1 -3.3,7.4 -7.4,7.4 -4.1,0 -7.4,-3.3 -7.4,-7.4 0,-4.1 3.3,-7.4 7.4,-7.4 4.1,0 7.4,3.3 7.4,7.4 l 0,0 z m 0,0"
       id="path41"
       style="fill:#ffffff"
       inkscape:connector-curvature="0" /></g></svg>